<?xml version="1.0" standalone="no"?>
<!DOCTYPE svg PUBLIC "-//W3C//DTD SVG 20010904//EN"
 "http://www.w3.org/TR/2001/REC-SVG-20010904/DTD/svg10.dtd">
<svg version="1.0" xmlns="http://www.w3.org/2000/svg"
 width="500.000000pt" height="500.000000pt" viewBox="0 0 500.000000 500.000000"
 preserveAspectRatio="xMidYMid meet">
<metadata>
Created by potrace 1.14, written by Peter Selinger 2001-2017
</metadata>
<g transform="translate(0.000000,500.000000) scale(0.100000,-0.100000)"
fill="#000000" stroke="none">
<path d="M3470 2714 c-6 -14 -10 -32 -10 -40 0 -11 -15 -14 -60 -14 l-60 0 0
30 c0 27 -3 30 -30 30 -26 0 -31 -5 -37 -31 -6 -31 -8 -33 -55 -43 -38 -9 -35
-26 3 -26 l31 0 -7 -110 c-7 -108 -11 -122 -64 -219 -23 -42 -32 -2 -32 134 0
116 -1 125 -19 125 -21 0 -25 -10 -39 -95 -10 -67 -41 -153 -71 -202 -42 -69
-56 -27 -45 131 13 200 18 180 -40 187 -27 4 -64 10 -82 14 -37 9 -39 5 -47
-111 -3 -54 -11 -82 -33 -120 -43 -72 -56 -65 -68 34 -14 110 -37 126 -98 72
l-34 -30 -5 45 c-11 91 -65 123 -122 70 -15 -14 -29 -25 -32 -25 -2 0 -4 16
-4 35 0 30 -3 35 -24 35 -26 0 -28 -6 -41 -101 -6 -46 -7 -47 -46 -51 -22 -2
-44 1 -48 7 -20 25 -53 134 -54 178 -2 88 39 85 64 -5 5 -21 14 -38 19 -38 41
0 52 38 25 90 -19 36 -43 50 -89 50 -79 0 -110 -97 -71 -225 19 -63 19 -75 -1
-75 -31 0 -85 -33 -99 -61 -22 -42 -18 -75 12 -109 39 -43 95 -50 157 -20 53
25 66 57 55 130 -4 25 -6 46 -5 46 0 1 18 4 39 8 l37 7 0 -60 c0 -79 13 -113
43 -109 19 3 23 11 28 63 6 65 41 178 64 209 30 39 40 8 51 -156 5 -84 8 -98
23 -98 13 0 22 16 35 63 18 65 40 107 56 107 6 0 10 -7 10 -15 0 -39 24 -119
41 -136 26 -26 45 -24 76 9 l26 27 -5 -33 c-3 -23 0 -36 9 -39 8 -3 16 -3 19
-1 7 7 31 151 39 235 7 73 7 73 34 67 14 -4 27 -7 28 -8 1 -1 -2 -19 -7 -41
-12 -52 -13 -227 -1 -258 14 -37 39 -57 71 -57 34 0 62 26 92 85 14 26 23 35
26 25 9 -29 35 -50 62 -50 31 0 53 21 73 70 l15 33 7 -41 c20 -121 123 -153
165 -51 14 33 30 38 30 9 0 -15 7 -20 24 -20 22 0 26 7 36 57 20 95 82 216
100 196 5 -4 10 -65 12 -135 2 -104 6 -130 20 -145 27 -26 67 -7 94 46 l23 43
12 -26 c14 -29 40 -41 73 -32 16 4 32 26 55 76 48 104 34 122 -17 23 -23 -46
-46 -83 -51 -83 -15 0 -21 42 -21 163 0 95 -3 117 -14 117 -22 0 -25 -10 -40
-107 -12 -86 -55 -203 -74 -203 -13 0 -22 76 -22 179 0 100 -12 128 -51 118
-33 -9 -42 -16 -73 -62 l-28 -40 6 40 c3 22 8 91 12 153 l6 112 -26 0 c-19 0
-29 -7 -36 -26z m-20 -91 c-1 -82 -25 -260 -41 -303 -23 -62 -45 -100 -59
-100 -26 0 -38 155 -24 323 5 58 11 77 23 80 28 8 101 7 101 0z m-1261 -278
c11 -49 11 -59 -3 -80 -21 -33 -69 -34 -90 -3 -33 47 -16 113 34 131 38 14 47
7 59 -48z"/>
<path d="M1266 2703 c-17 -54 -26 -179 -21 -263 6 -88 5 -97 -14 -114 -30 -27
-27 -61 9 -86 22 -15 30 -30 30 -51 0 -24 4 -29 25 -29 22 0 25 4 25 35 0 30
3 35 23 35 66 0 164 75 207 159 13 26 30 43 51 50 18 6 33 11 34 11 1 0 -8
-89 -17 -170 -2 -16 2 -26 13 -28 14 -2 20 14 32 85 9 48 19 118 23 155 6 67
7 68 33 61 14 -3 27 -6 28 -7 1 -1 -2 -19 -7 -41 -16 -68 -12 -232 6 -271 29
-62 94 -59 136 7 53 82 96 238 60 215 -5 -3 -23 -43 -40 -88 -76 -200 -111
-196 -98 11 4 58 8 124 9 146 l2 40 -50 6 c-27 4 -64 10 -81 14 -27 6 -32 4
-37 -17 -4 -12 -7 -38 -7 -56 0 -26 -5 -35 -26 -42 -42 -16 -44 -13 -44 58 0
49 -5 76 -20 100 -54 88 -136 55 -209 -83 l-21 -40 0 108 c0 107 0 107 -24
107 -15 0 -27 -7 -30 -17z m232 -84 c7 -15 11 -54 10 -104 l-3 -80 -83 -29
c-45 -16 -85 -26 -88 -23 -16 16 54 180 102 236 30 36 43 36 62 0z m-40 -276
c-33 -46 -70 -74 -115 -88 -22 -6 -23 -3 -23 43 l0 49 68 21 c105 32 110 30
70 -25z"/>
<path d="M3116 2614 c-8 -21 1 -34 24 -34 19 0 30 17 23 38 -7 17 -40 15 -47
-4z"/>
<path d="M3784 2615 c-4 -9 -2 -21 4 -27 15 -15 44 -1 40 19 -4 23 -36 29 -44
8z"/>
<path d="M1950 2286 c0 -15 24 -28 34 -19 13 14 5 33 -14 33 -11 0 -20 -6 -20
-14z"/>
<path d="M1882 1780 c1 -26 6 -40 15 -40 9 0 13 13 13 40 0 29 -4 40 -15 40
-11 0 -14 -10 -13 -40z"/>
<path d="M1940 1780 c0 -22 5 -40 10 -40 6 0 10 18 10 40 0 22 -4 40 -10 40
-5 0 -10 -18 -10 -40z"/>
<path d="M2021 1798 c-13 -33 4 -60 36 -56 56 7 55 69 -1 76 -20 3 -28 -2 -35
-20z m54 -18 c0 -16 -6 -26 -17 -28 -14 -3 -18 3 -18 28 0 25 4 31 18 28 11
-2 17 -12 17 -28z"/>
<path d="M2150 1780 c0 -22 4 -40 9 -40 4 0 7 12 5 28 l-4 27 12 -27 c12 -29
23 -35 33 -18 3 6 -1 17 -9 26 -9 8 -16 22 -16 30 0 8 -7 14 -15 14 -11 0 -15
-11 -15 -40z"/>
<path d="M2217 1807 c-8 -20 4 -67 17 -67 6 0 11 17 11 40 0 39 -17 55 -28 27z"/>
<path d="M2305 1780 c0 -38 1 -40 33 -40 17 0 32 4 32 9 0 5 -9 7 -20 4 -17
-5 -20 0 -20 27 0 27 3 32 20 27 11 -3 20 -1 20 4 0 5 -15 9 -32 9 -32 0 -33
-2 -33 -40z"/>
<path d="M2424 1806 c-3 -8 -4 -25 -2 -38 2 -18 10 -24 36 -26 36 -4 48 13 38
53 -5 20 -13 25 -37 25 -16 0 -32 -6 -35 -14z m51 -27 c0 -15 -7 -25 -17 -27
-13 -3 -18 3 -18 21 0 13 3 27 7 31 13 12 28 -1 28 -25z"/>
<path d="M2560 1780 c0 -22 5 -40 10 -40 10 0 14 19 11 53 -1 9 3 17 8 17 6 0
11 -10 11 -21 0 -18 3 -19 14 -9 22 17 8 40 -25 40 -27 0 -29 -3 -29 -40z"/>
<path d="M2697 1813 c-11 -10 -8 -25 3 -18 6 3 10 2 10 -4 0 -5 -8 -12 -17
-14 -14 -4 -12 -5 5 -6 12 -1 22 -7 22 -16 0 -8 7 -15 15 -15 14 0 14 4 0 36
-8 20 -15 38 -15 40 0 6 -16 4 -23 -3z"/>
<path d="M2800 1810 c0 -5 7 -7 15 -4 12 5 15 -2 15 -30 0 -20 5 -36 10 -36 6
0 10 16 10 36 0 28 3 35 15 30 8 -3 15 -1 15 4 0 6 -18 10 -40 10 -22 0 -40
-4 -40 -10z"/>
<path d="M2930 1780 c0 -25 5 -40 13 -40 7 0 12 15 12 40 0 25 -5 40 -12 40
-8 0 -13 -15 -13 -40z"/>
<path d="M2990 1780 c0 -22 5 -40 10 -40 6 0 10 18 10 40 0 22 -4 40 -10 40
-5 0 -10 -18 -10 -40z"/>
<path d="M3074 1798 c9 -12 16 -30 16 -40 0 -10 7 -18 15 -18 9 0 12 6 9 15
-4 8 1 26 10 40 9 14 12 25 7 25 -5 0 -12 -8 -16 -17 -6 -17 -7 -17 -19 0 -20
26 -41 22 -22 -5z"/>
<path d="M2170 1630 c-17 -32 4 -60 43 -59 32 2 32 2 3 6 -25 4 -28 8 -24 39
4 38 -6 44 -22 14z"/>
<path d="M2218 1643 c7 -3 16 -2 19 1 4 3 -2 6 -13 5 -11 0 -14 -3 -6 -6z"/>
<path d="M2290 1610 c0 -38 2 -40 30 -40 17 0 30 4 30 9 0 5 -9 7 -20 4 -17
-5 -20 0 -20 31 0 20 -4 36 -10 36 -5 0 -10 -18 -10 -40z"/>
<path d="M2410 1610 c0 -22 5 -40 10 -40 6 0 10 18 10 40 0 22 -4 40 -10 40
-5 0 -10 -18 -10 -40z"/>
<path d="M2492 1608 c1 -39 2 -40 5 -9 l4 34 29 -34 28 -34 0 31 c-1 17 2 36
6 43 4 6 2 11 -3 11 -6 0 -11 -10 -11 -22 l-1 -23 -18 23 c-29 34 -41 27 -39
-20z"/>
<path d="M2625 1610 c0 -25 5 -40 13 -40 7 0 12 15 12 40 0 25 -5 40 -12 40
-8 0 -13 -15 -13 -40z"/>
<path d="M2710 1630 c-13 -25 3 -60 28 -60 11 0 13 3 5 8 -11 7 -16 26 -14 49
0 6 13 14 29 16 25 4 25 4 -5 6 -23 1 -35 -5 -43 -19z"/>
<path d="M2765 1580 c-3 -5 -1 -10 4 -10 6 0 11 5 11 10 0 6 -2 10 -4 10 -3 0
-8 -4 -11 -10z"/>
<path d="M1770 1100 c0 -22 5 -40 10 -40 6 0 10 18 10 40 0 22 -4 40 -10 40
-5 0 -10 -18 -10 -40z"/>
<path d="M1870 1100 c0 -22 5 -40 10 -40 6 0 10 18 10 40 0 22 -4 40 -10 40
-5 0 -10 -18 -10 -40z"/>
<path d="M1925 1100 c0 -25 5 -40 13 -40 7 0 12 15 12 40 0 25 -5 40 -12 40
-8 0 -13 -15 -13 -40z"/>
<path d="M2005 1100 c0 -25 5 -40 13 -40 7 0 12 15 12 40 0 25 -5 40 -12 40
-8 0 -13 -15 -13 -40z"/>
<path d="M2200 1121 c0 -11 9 -23 21 -26 12 -4 18 -12 15 -21 -6 -17 10 -19
20 -2 4 6 -3 20 -17 31 -13 11 -23 24 -21 28 1 5 -2 9 -8 9 -5 0 -10 -9 -10
-19z"/>
<path d="M2314 1126 c-8 -20 -1 -59 11 -63 6 -2 10 15 10 37 0 40 -11 53 -21
26z"/>
<path d="M2435 1100 c0 -22 5 -40 10 -40 6 0 10 18 10 40 0 22 -5 40 -10 40
-6 0 -11 -18 -10 -40z"/>
<path d="M2520 1100 c0 -22 5 -40 10 -40 6 0 10 18 10 40 0 22 -4 40 -10 40
-5 0 -10 -18 -10 -40z"/>
<path d="M2640 1133 c1 -9 57 -73 65 -73 3 0 4 19 4 43 -1 37 -2 39 -8 12 l-6
-29 -18 27 c-16 25 -37 36 -37 20z"/>
<path d="M2771 1118 c-9 -24 3 -58 20 -58 6 0 6 7 -1 20 -8 14 -8 26 0 40 8
14 8 20 0 20 -6 0 -14 -10 -19 -22z"/>
<path d="M2890 1100 c0 -26 5 -40 13 -40 9 0 11 12 9 40 -2 22 -8 40 -13 40
-5 0 -9 -18 -9 -40z"/>
<path d="M2938 1133 c7 -3 16 -2 19 1 4 3 -2 6 -13 5 -11 0 -14 -3 -6 -6z"/>
<path d="M3084 1125 c-10 -25 5 -65 24 -65 13 0 14 2 3 9 -9 6 -12 20 -9 40 5
32 -8 43 -18 16z"/>
<path d="M3130 1125 c7 -8 10 -25 6 -40 -8 -30 10 -34 19 -5 9 28 -3 60 -22
60 -13 0 -13 -3 -3 -15z"/>
<path d="M3210 1100 c0 -25 5 -40 13 -40 7 0 12 15 12 40 0 25 -5 40 -12 40
-8 0 -13 -15 -13 -40z"/>
<path d="M2641 1074 c0 -11 3 -14 6 -6 3 7 2 16 -1 19 -3 4 -6 -2 -5 -13z"/>
<path d="M2055 1070 c-3 -5 -1 -10 4 -10 6 0 11 5 11 10 0 6 -2 10 -4 10 -3 0
-8 -4 -11 -10z"/>
<path d="M2365 1070 c-3 -5 -1 -10 4 -10 6 0 11 5 11 10 0 6 -2 10 -4 10 -3 0
-8 -4 -11 -10z"/>
<path d="M2558 1063 c7 -3 16 -2 19 1 4 3 -2 6 -13 5 -11 0 -14 -3 -6 -6z"/>
<path d="M2938 1063 c7 -3 16 -2 19 1 4 3 -2 6 -13 5 -11 0 -14 -3 -6 -6z"/>
<path d="M2092 928 c1 -41 1 -41 5 -8 l5 35 29 -35 c16 -20 28 -29 28 -20 0
18 -44 70 -59 70 -5 0 -9 -19 -8 -42z"/>
<path d="M2242 963 c3 -5 11 -23 18 -40 13 -29 30 -44 30 -26 0 22 -26 73 -38
73 -7 0 -12 -3 -10 -7z"/>
<path d="M2380 930 c0 -22 5 -40 10 -40 6 0 10 18 10 40 0 22 -4 40 -10 40 -5
0 -10 -18 -10 -40z"/>
<path d="M2482 933 c2 -20 8 -38 13 -40 7 -2 9 12 7 37 -2 22 -8 40 -14 40 -5
0 -8 -17 -6 -37z"/>
<path d="M2610 930 c0 -22 5 -40 10 -40 6 0 10 18 10 40 0 22 -4 40 -10 40 -5
0 -10 -18 -10 -40z"/>
<path d="M2656 956 c3 -8 1 -17 -5 -21 -13 -7 4 -45 20 -45 6 0 6 7 -1 19 -6
13 -7 22 0 26 11 7 2 35 -11 35 -4 0 -6 -6 -3 -14z"/>
<path d="M2760 965 c0 -3 7 -21 14 -40 21 -49 38 -44 19 5 -9 22 -20 40 -25
40 -4 0 -8 -2 -8 -5z"/>
<path d="M2870 930 c0 -22 5 -40 10 -40 6 0 10 18 10 40 0 22 -4 40 -10 40 -5
0 -10 -18 -10 -40z"/>
<path d="M2230 930 c0 -5 5 -10 11 -10 5 0 7 5 4 10 -3 6 -8 10 -11 10 -2 0
-4 -4 -4 -10z"/>
<path d="M2110 760 c0 -22 5 -40 10 -40 6 0 10 18 10 40 0 22 -4 40 -10 40 -5
0 -10 -18 -10 -40z"/>
<path d="M2170 760 c0 -22 5 -40 10 -40 6 0 10 18 10 40 0 22 -4 40 -10 40 -5
0 -10 -18 -10 -40z"/>
<path d="M2250 760 c0 -22 5 -40 10 -40 6 0 10 18 10 40 0 22 -4 40 -10 40 -5
0 -10 -18 -10 -40z"/>
<path d="M2395 781 c4 -14 0 -21 -12 -24 -14 -4 -13 -5 5 -6 12 -1 22 -7 22
-16 0 -8 6 -15 14 -15 12 0 12 7 -2 40 -17 40 -39 57 -27 21z"/>
<path d="M2500 760 c0 -22 5 -40 10 -40 6 0 10 18 10 40 0 22 -4 40 -10 40 -5
0 -10 -18 -10 -40z"/>
<path d="M2620 760 c0 -22 5 -40 10 -40 6 0 10 18 10 40 0 22 -4 40 -10 40 -5
0 -10 -18 -10 -40z"/>
<path d="M2701 758 l2 -43 6 35 6 35 24 -34 c15 -20 27 -29 29 -22 4 13 -45
71 -60 71 -4 0 -7 -19 -7 -42z"/>
<path d="M2834 786 c-8 -20 -1 -59 11 -63 6 -2 10 15 10 37 0 40 -11 53 -21
26z"/>
<path d="M2885 747 c-4 -10 -5 -21 -1 -24 10 -10 18 4 13 24 -4 17 -4 17 -12
0z"/>
</g>
</svg>
